<?xml version="1.0" encoding="utf-8"?>
<!-- Generator: Adobe Illustrator 27.4.0, SVG Export Plug-In . SVG Version: 6.00 Build 0)  -->
<svg version="1.1" id="Layer_2_00000089550388149315364560000007424332339054886071_"
	 xmlns="http://www.w3.org/2000/svg" xmlns:xlink="http://www.w3.org/1999/xlink" x="0px" y="0px" viewBox="0 0 750.8 322.5"
	 style="enable-background:new 0 0 750.8 322.5;" xml:space="preserve">
<style type="text/css">
	.st0{fill:#F52058;stroke:#21D2FF;stroke-width:2;stroke-miterlimit:10;}
	.st1{fill:none;stroke:#21C8FF;stroke-width:12;stroke-miterlimit:10;}
	.st2{fill:none;stroke:#F4E108;stroke-width:12;stroke-miterlimit:10;}
	.st3{fill:#21C8FF;}
	.st4{font-family:'AnnaiMN-Regular';}
	.st5{font-size:99.86px;}
	.st6{fill:none;stroke:#000000;stroke-miterlimit:10;}
	.st7{fill:#F4E108;}
</style>
<g id="Layer_1-2">
	<g>
		<path class="st0" d="M179.2,153.1l70.2-70.2c0.6-0.7,0.4-1.8-0.4-2.1c-5.4-5.8-14.4-14.1-27.7-20.5c-17.6-8.5-33.8-9.4-42.4-9.3
			c-0.1,0-0.6-0.3-1.2,0.1c-0.3,0.2-0.6,0.6-0.6,1.1v100C177,153.3,178.4,153.9,179.2,153.1L179.2,153.1z"/>
		<path class="st0" d="M184.3,158.3l99.2,0.1c0.9,0,1.5-0.9,1.2-1.8c0.3-7.9-0.2-20.2-5-34.1c-6.4-18.5-17.2-30.6-23.4-36.6
			c0-0.1-0.3-0.7-0.9-0.8c-0.4-0.1-0.9,0-1.2,0.3L183.4,156C182.6,156.9,183.2,158.3,184.3,158.3L184.3,158.3z"/>
		<path class="st0" d="M181.9,165.7l70.3,70c0.6,0.6,1.8,0.4,2.1-0.4c5.8-5.4,14.1-14.4,20.5-27.8c8.5-17.6,9.4-33.8,9.2-42.4
			c0-0.1,0.3-0.6-0.1-1.2c-0.2-0.3-0.6-0.6-1.1-0.6l-100,0.2C181.7,163.5,181.1,164.9,181.9,165.7L181.9,165.7z"/>
		<path class="st0" d="M176.2,171.7l-0.3,99.2c0,0.9,0.9,1.5,1.8,1.2c7.9,0.3,20.2-0.2,34.1-5c18.5-6.4,30.6-17.1,36.6-23.3
			c0.1,0,0.6-0.3,0.8-0.9c0.1-0.4,0-0.9-0.4-1.2l-70.5-70.9C177.6,170,176.2,170.5,176.2,171.7L176.2,171.7z"/>
		<path class="st0" d="M166.6,171l-70.2,70.1c-0.7,0.6-0.4,1.8,0.4,2.1c5.4,5.8,14.4,14.1,27.7,20.5c17.6,8.5,33.8,9.4,42.4,9.3
			c0.1,0,0.6,0.3,1.2-0.1c0.3-0.2,0.6-0.6,0.6-1.1v-100C168.8,170.7,167.4,170.2,166.6,171L166.6,171z"/>
		<path class="st0" d="M162.6,164.3L63.4,164c-0.9,0-1.5,0.9-1.2,1.8c-0.3,7.9,0.2,20.2,5,34.1c6.4,18.5,17.1,30.6,23.3,36.6
			c0,0.1,0.3,0.6,0.9,0.8c0.4,0.1,0.8,0,1.2-0.4l70.9-70.5C164.3,165.7,163.8,164.3,162.6,164.3L162.6,164.3z"/>
		<path class="st0" d="M164.1,157.2L93.9,87c-0.7-0.7-1.8-0.4-2.1,0.4c-5.8,5.4-14.1,14.4-20.5,27.7c-8.5,17.6-9.4,33.8-9.3,42.4
			c0,0.1-0.3,0.6,0.1,1.2c0.2,0.3,0.6,0.6,1.1,0.6h100C164.3,159.4,164.9,158,164.1,157.2L164.1,157.2z"/>
		<path class="st0" d="M168.8,152.3l0.6-99.2c0-0.9-0.9-1.5-1.8-1.2c-7.9-0.3-20.2,0.1-34.2,4.9c-18.5,6.3-30.7,17-36.7,23.2
			c-0.1,0-0.7,0.3-0.8,0.9c-0.1,0.4,0,0.8,0.3,1.2l70.3,71.1C167.4,154,168.8,153.4,168.8,152.3L168.8,152.3z"/>
	</g>
	<circle class="st1" cx="174.4" cy="161" r="127"/>
	<path class="st2" d="M16.4,132C32.9,58.2,99.1,5.5,174.4,6C249,6.5,314,58.9,330.4,132"/>
	<path class="st2" d="M332.9,164.1c-7,83.8-73.9,148.9-152.5,152.3C95.9,320,20,251.5,13.9,161"/>
	<path class="st3" d="M19.8,141c10.9,0.3,22.2,18.3,17,31.5c-2.4,6.2-9.1,12.8-17.8,12.8s-15.4-6.5-17.8-12.8
		C-3.9,159,8.6,140.7,19.8,141z"/>
	<path class="st3" d="M345.4,158.8c-3.1,0-2.9-7.4-3.4-17.8c-1.5-1.4-2.9-1.5-4.4,0c-0.5,10.3-0.4,17.8-3.4,17.8s-2.9-7.4-3.4-17.8
		c-1.5-1.5-3-1.4-4.4,0c-0.5,10.3-0.3,17.8-3.4,17.8c-2.9,0.2-2.9-7.4-3.4-17.8c-1.7-1.6-3.2-1.4-4.5,0c0.2,19.4,8.6,35,19,35
		s18.8-15.6,19-35c-1.6-1.6-3.1-1.4-4.5,0C348.3,151.3,348.4,158.8,345.4,158.8L345.4,158.8z"/>
	<g>
		<path d="M142.6,291.2c0.1,0.2,0.1,0.4,0.1,0.6c0,0.1-0.1,0.2-0.2,0.4c-0.1,0.2-0.2,0.3-0.3,0.5c-0.4,0.7-0.7,1.4-1.1,2.2
			s-0.9,1.9-1.5,3.1c-0.6,1.3-1.1,2.5-1.6,3.5c-0.4,1-0.8,1.7-0.9,2.1c-0.1,0.2-0.3,0.4-0.5,0.5s-0.5,0.1-0.8,0s-0.5-0.3-0.6-0.5
			s-0.1-0.5-0.1-0.7c0-0.1,0.2-0.4,0.5-0.9c0.4-0.7,0.8-1.4,1.2-2s0.8-1.4,1.2-2.4l0,0c-0.4-0.2-0.9-0.3-1.3-0.5
			c-0.4-0.1-1-0.4-1.9-0.7c-0.3-0.1-0.9-0.3-1.6-0.6c-0.5-0.2-0.9-0.3-1.2-0.4c-0.7,1.3-1.3,2.4-1.8,3.4s-0.9,1.6-1,2
			c-0.1,0.2-0.3,0.4-0.5,0.5s-0.5,0-0.8-0.1s-0.5-0.3-0.6-0.5s-0.1-0.5,0-0.7c0-0.1,0.2-0.4,0.6-0.9c0.5-0.7,0.9-1.3,1.3-2
			c0.4-0.6,0.9-1.4,1.4-2.3l0,0c0,0,0,0-0.1,0c-0.3-0.1-0.5-0.3-0.6-0.5s-0.1-0.5,0-0.7c0.2-0.4,0.6-0.5,1.1-0.3
			c0.1,0.1,0.3,0.1,0.4,0.2c0.8-1.4,1.4-2.5,1.7-3.1s0.6-1.1,0.7-1.4c0.1-0.3,0.3-0.5,0.5-0.6s0.5-0.1,0.8,0
			c0.2,0.1,0.4,0.2,0.5,0.4c0.1,0.2,0.1,0.4,0,0.6c0,0.1-0.1,0.2-0.2,0.3c-0.1,0.1-0.2,0.3-0.3,0.5c-0.3,0.5-0.7,1.1-1,1.6
			s-0.8,1.3-1.2,2.1c0.7,0.3,1.4,0.6,2.1,0.8c0.8,0.3,1.7,0.6,2.7,0.9c0.2,0,0.4,0.1,0.5,0.2c0.2,0.1,0.4,0.1,0.6,0.2
			c0.7-1.5,1.2-2.6,1.5-3.2c0.3-0.7,0.5-1.2,0.6-1.5s0.3-0.5,0.5-0.6s0.5-0.1,0.8,0C142.3,290.9,142.5,291,142.6,291.2L142.6,291.2z
			"/>
		<path d="M152.2,305.1c0.1,0.2,0.2,0.4,0.1,0.6c-0.1,0.4-0.4,0.7-0.9,1s-1.1,0.5-1.9,0.6c-0.7,0.1-1.4,0.1-2,0
			c-0.8-0.2-1.4-0.5-1.9-0.9s-0.8-1-1-1.6s-0.1-1.4,0.1-2.1c0.3-1.1,0.8-2,1.5-3c0.7-0.9,1.5-1.6,2.4-2.1s1.8-0.6,2.8-0.4
			c0.6,0.1,1,0.3,1.4,0.6c0.4,0.3,0.6,0.7,0.8,1.1s0.2,1,0.1,1.5c-0.1,0.8-0.6,1.4-1.3,1.8c-0.7,0.5-1.6,0.7-2.7,0.8
			c-1.1,0.1-2.1,0-3.2-0.2c0,0.1,0,0.1,0,0.2c-0.2,0.8-0.2,1.5,0.1,2s0.7,0.9,1.3,1c0.5,0.1,1,0.1,1.5-0.1s1-0.5,1.5-1
			c0.1-0.1,0.2-0.2,0.4-0.2s0.3,0,0.5,0C151.8,304.9,152,305,152.2,305.1L152.2,305.1z M149.3,298.9c-0.5,0.3-1,0.7-1.4,1.2
			s-0.8,1.1-1.1,1.8c0.7,0.1,1.5,0.2,2.2,0.1c0.8-0.1,1.5-0.3,2-0.6c0.6-0.3,0.9-0.7,1-1.2c0.1-0.2,0-0.5-0.1-0.7s-0.2-0.4-0.4-0.5
			s-0.4-0.3-0.7-0.3C150.3,298.5,149.8,298.6,149.3,298.9L149.3,298.9z"/>
		<path d="M167.7,300.7c-0.1,0.2-0.1,0.4-0.1,0.4c-0.1,0.4-0.2,0.7-0.2,0.8c-0.2,0.7-0.4,1.8-0.7,3.1c-0.3,1.4-0.4,2.2-0.5,2.7
			c0,0.2,0,0.4,0,0.7c0,0.3,0,0.5,0,0.6c0,0.2-0.1,0.4-0.3,0.6s-0.4,0.2-0.7,0.2c-0.4,0-0.6-0.2-0.8-0.4c-0.1-0.2-0.2-0.6-0.2-1
			c0-0.3,0.1-0.7,0.2-1.1c-0.5,0.7-1.1,1.3-1.8,1.7s-1.3,0.6-1.9,0.5c-0.7-0.1-1.2-0.3-1.7-0.7c-0.4-0.4-0.8-0.9-0.9-1.5
			s-0.2-1.4-0.1-2.2c0.1-1.2,0.5-2.2,1.1-3.2s1.3-1.7,2.1-2.2s1.7-0.8,2.6-0.7c0.4,0,0.9,0.2,1.2,0.4c0.3,0.2,0.6,0.5,0.9,0.9
			c0.1-0.3,0.2-0.6,0.4-0.7c0.2-0.2,0.4-0.2,0.7-0.2c0.2,0,0.4,0.1,0.6,0.3c0.1,0.2,0.2,0.4,0.2,0.6
			C167.8,300.3,167.8,300.5,167.7,300.7L167.7,300.7z M162.5,307.6c0.5-0.3,1-0.8,1.5-1.4s0.9-1.2,1.1-1.9c0-0.2,0.1-0.2,0.1-0.4
			c0.2-1,0.4-1.8,0.5-2.5c-0.1,0-0.1,0-0.2,0c-0.1,0-0.3-0.1-0.4-0.2c-0.2-0.2-0.4-0.4-0.6-0.5s-0.4-0.2-0.7-0.2
			c-0.6,0-1.2,0.1-1.8,0.6s-1.1,1.1-1.5,1.9s-0.7,1.6-0.8,2.5s0,1.5,0.2,1.9s0.6,0.7,1.2,0.7C161.5,308.1,162,307.9,162.5,307.6
			L162.5,307.6z"/>
		<path d="M173.2,309.8c-0.2-0.1-0.3-0.3-0.3-0.5c0-0.1,0-0.2,0.1-0.4s0.1-0.3,0.1-0.5c0.1-0.6,0.2-1.1,0.3-1.7
			c0.2-1.2,0.4-2.5,0.5-3.7c0.3-2.2,0.4-3.8,0.5-4.7c0.1-1,0.1-1.7,0.1-2.2c0-0.2,0-0.4,0-0.4c0-0.2,0.1-0.4,0.3-0.5
			s0.4-0.2,0.7-0.2c0.2,0,0.5,0.1,0.6,0.2c0.2,0.1,0.3,0.3,0.3,0.6c0,0.1,0,0.3-0.1,0.6c-0.1,0.4-0.1,0.7-0.2,1
			c-0.1,0.6-0.2,1.5-0.3,2.4c-0.1,1-0.2,2-0.3,3c-0.3,2.8-0.4,4.7-0.4,5.8c0,0.3,0,0.6-0.1,0.7c0,0.2-0.1,0.4-0.3,0.5
			s-0.5,0.2-0.8,0.2C173.6,310.1,173.4,310,173.2,309.8L173.2,309.8z"/>
		<path d="M183.5,309.2c-0.6-0.3-1.1-0.7-1.4-1.3c-0.4-0.6-0.6-1.2-0.6-2c-0.1-1,0.1-2.1,0.4-3.2c0.3-1.1,0.8-2,1.5-2.8
			s1.4-1.2,2.3-1.3c0.6-0.1,1.2,0.1,1.8,0.4c0.6,0.4,1.1,0.9,1.5,1.6s0.7,1.7,0.8,2.7s0.1,2-0.2,2.9s-0.8,1.6-1.5,2.1
			s-1.5,0.9-2.5,1C184.8,309.6,184.1,309.5,183.5,309.2L183.5,309.2z M187.5,301.6c-0.2-0.5-0.5-0.9-0.8-1.1s-0.7-0.4-1.1-0.3
			c-0.6,0.1-1.1,0.4-1.4,1c-0.4,0.6-0.6,1.4-0.8,2.2c-0.2,0.9-0.2,1.7-0.1,2.5c0.1,0.8,0.3,1.5,0.6,1.9s0.8,0.6,1.4,0.5
			c0.6-0.1,1.2-0.3,1.6-0.7c0.5-0.4,0.8-1,1-1.7s0.2-1.5,0.1-2.4C187.9,302.7,187.8,302.1,187.5,301.6L187.5,301.6z"/>
		<path d="M197.7,307.2c-0.6-0.2-1.1-0.6-1.6-1.1s-0.7-1.2-0.9-1.9c-0.2-1-0.2-2.1,0-3.2s0.6-2.1,1.1-2.9c0.6-0.8,1.3-1.3,2.1-1.5
			c0.6-0.1,1.2-0.1,1.8,0.2c0.6,0.3,1.1,0.8,1.6,1.5s0.9,1.6,1.2,2.6s0.3,2,0.1,2.9s-0.6,1.7-1.3,2.3c-0.6,0.6-1.4,1-2.4,1.2
			C199,307.4,198.3,307.4,197.7,307.2L197.7,307.2z M200.8,299.1c-0.3-0.5-0.6-0.8-1-1s-0.7-0.3-1.1-0.2c-0.6,0.1-1,0.5-1.3,1.2
			s-0.5,1.4-0.5,2.3c-0.1,0.9,0,1.7,0.2,2.5s0.4,1.4,0.8,1.8c0.4,0.4,0.9,0.5,1.5,0.3c0.6-0.1,1.1-0.4,1.5-0.9s0.7-1.1,0.8-1.8
			c0.1-0.7,0.1-1.5-0.1-2.4C201.3,300.2,201.1,299.6,200.8,299.1L200.8,299.1z"/>
		<path d="M213.9,287.2c0.2,0.1,0.4,0.2,0.4,0.4c0.1,0.1,0.1,0.4,0.2,0.7c0.1,0.4,0.1,0.7,0.2,1c0.3,1.2,0.8,3,1.4,5.3
			c0.4,1.5,0.7,2.6,0.9,3.4s0.4,1.3,0.5,1.5s0.2,0.5,0.4,0.8c0.1,0.2,0.2,0.3,0.2,0.4c0.1,0.2,0.1,0.5,0,0.7s-0.3,0.4-0.6,0.5
			c-0.4,0.1-0.6,0.1-0.9-0.1c-0.2-0.2-0.4-0.6-0.6-1.1c-0.1-0.3-0.2-0.6-0.3-0.9c-0.1,0.9-0.4,1.8-0.9,2.5c-0.4,0.7-1,1.2-1.7,1.4
			c-0.6,0.2-1.2,0.2-1.8,0.1s-1.1-0.5-1.5-1s-0.8-1.1-1-1.9c-0.3-1.1-0.5-2.2-0.4-3.3c0.1-1.1,0.4-2.1,0.9-3s1.2-1.4,2.1-1.8
			c0.4-0.2,0.8-0.2,1.2-0.2s0.7,0.1,1.1,0.3c0.1,0.1,0.2,0.1,0.2,0.2c-0.3-1.3-0.6-2.2-0.8-2.8c-0.2-0.6-0.4-1.1-0.5-1.5
			c-0.1-0.2-0.1-0.3-0.1-0.4c-0.1-0.2,0-0.4,0.1-0.6s0.3-0.3,0.5-0.4S213.6,287.1,213.9,287.2L213.9,287.2z M214.2,293.8
			c-0.1,0.1-0.2,0.2-0.3,0.2c-0.2,0.1-0.3,0.1-0.5,0c-0.3-0.1-0.5-0.2-0.8-0.2c-0.2,0-0.5,0-0.8,0.1c-0.6,0.2-1.1,0.7-1.4,1.4
			s-0.5,1.5-0.5,2.4s0.1,1.8,0.4,2.6c0.2,0.7,0.6,1.2,1,1.5s0.9,0.4,1.4,0.2c0.5-0.2,0.9-0.5,1.2-1.2c0.4-0.6,0.6-1.4,0.8-2.2
			c0.2-0.8,0.2-1.6,0.1-2.4c-0.1-0.2-0.1-0.4-0.1-0.6C214.5,295,214.4,294.6,214.2,293.8L214.2,293.8z"/>
	</g>
	<g>
		<path d="M138.7,16.5c0.2,0.1,0.3,0.3,0.4,0.5c0,0.1,0.1,0.2,0.1,0.4c0,0.2,0,0.4,0.1,0.6c0.1,0.8,0.1,1.6,0.2,2.5
			c0.1,0.9,0.3,2,0.5,3.4s0.5,2.7,0.7,3.8c0.2,1.1,0.4,1.8,0.5,2.2c0.1,0.3,0,0.5-0.1,0.7s-0.3,0.4-0.6,0.4c-0.3,0.1-0.5,0.1-0.7,0
			s-0.4-0.3-0.4-0.5c0-0.1-0.1-0.4-0.1-1c-0.1-0.8-0.2-1.6-0.3-2.4c-0.1-0.7-0.2-1.6-0.4-2.6l0,0c-0.5,0.1-0.9,0.2-1.3,0.4
			s-1,0.3-1.9,0.6c-0.3,0.1-0.9,0.3-1.6,0.6c-0.5,0.2-0.9,0.4-1.2,0.5c0.3,1.4,0.7,2.6,0.9,3.7s0.5,1.8,0.6,2.2
			c0.1,0.2,0.1,0.5,0,0.7s-0.3,0.4-0.6,0.5s-0.5,0.1-0.7,0s-0.4-0.3-0.5-0.5c0-0.1-0.1-0.4-0.2-1c-0.1-0.8-0.3-1.6-0.4-2.3
			s-0.4-1.6-0.6-2.6l0,0c0,0,0,0-0.1,0c-0.3,0.1-0.5,0.1-0.8,0.1c-0.2-0.1-0.4-0.2-0.5-0.5c-0.1-0.5,0.1-0.8,0.5-1
			c0.1-0.1,0.3-0.1,0.4-0.1c-0.4-1.6-0.7-2.7-0.9-3.5c-0.2-0.7-0.4-1.2-0.5-1.5s-0.1-0.5,0.1-0.8c0.1-0.2,0.4-0.4,0.8-0.6
			c0.2-0.1,0.5-0.1,0.7,0s0.4,0.2,0.4,0.5c0,0.1,0.1,0.2,0.1,0.4s0.1,0.4,0.1,0.6c0.1,0.6,0.2,1.3,0.3,1.9s0.3,1.5,0.5,2.4
			c0.8-0.3,1.5-0.5,2.1-0.8c0.8-0.3,1.7-0.6,2.7-1c0.2-0.1,0.4-0.1,0.5-0.2c0.2-0.1,0.4-0.1,0.6-0.2c-0.3-1.6-0.5-2.8-0.7-3.5
			c-0.1-0.7-0.3-1.2-0.4-1.5s-0.1-0.5,0.1-0.8c0.2-0.2,0.4-0.4,0.8-0.5C138.3,16.4,138.5,16.4,138.7,16.5L138.7,16.5z"/>
		<path d="M153.8,24.5c0.2,0.1,0.3,0.3,0.3,0.5c0.1,0.4-0.1,0.8-0.4,1.3c-0.3,0.5-0.8,0.9-1.3,1.3c-0.6,0.4-1.1,0.6-1.6,0.7
			c-0.7,0.1-1.3,0.1-1.9-0.1c-0.6-0.2-1.1-0.5-1.5-1s-0.7-1.1-0.9-1.9c-0.3-1.1-0.3-2.2-0.1-3.3c0.2-1.1,0.6-2.1,1.3-3
			c0.6-0.8,1.5-1.4,2.4-1.6c0.6-0.1,1.1-0.1,1.6,0s0.9,0.4,1.2,0.8s0.5,0.8,0.6,1.4c0.1,0.8-0.1,1.5-0.6,2.2s-1.2,1.2-2.1,1.8
			c-0.9,0.5-1.8,0.9-2.8,1.1c0,0.1,0,0.1,0,0.2c0.2,0.8,0.5,1.4,0.9,1.8s0.9,0.5,1.5,0.4c0.4-0.1,0.8-0.3,1.2-0.6s0.6-0.8,0.9-1.5
			c0.1-0.1,0.1-0.2,0.2-0.3c0.1-0.1,0.2-0.1,0.4-0.2C153.4,24.3,153.6,24.4,153.8,24.5L153.8,24.5z M148.9,19.7
			c-0.4,0.5-0.6,1-0.8,1.7s-0.2,1.4-0.2,2.1c0.7-0.2,1.3-0.5,2-0.9s1.2-0.8,1.6-1.3s0.6-1,0.5-1.5c-0.1-0.2-0.1-0.4-0.3-0.6
			s-0.4-0.3-0.6-0.4s-0.5-0.1-0.8,0C149.7,19,149.2,19.3,148.9,19.7L148.9,19.7z"/>
		<path d="M167.5,16.6c-0.1,0.2-0.1,0.4-0.1,0.4c-0.1,0.4-0.1,0.7-0.1,0.8c-0.1,0.7-0.2,1.8-0.3,3.2c-0.1,1.4-0.1,2.3-0.1,2.7
			c0,0.2,0,0.4,0.1,0.7c0.1,0.3,0.1,0.5,0.1,0.6c0,0.2-0.1,0.5-0.2,0.6c-0.1,0.2-0.3,0.2-0.6,0.3c-0.3,0-0.6-0.1-0.7-0.3
			s-0.3-0.5-0.3-0.9c0-0.3,0-0.7,0-1.1c-0.4,0.8-0.8,1.5-1.3,2s-1,0.8-1.6,0.8c-0.6,0.1-1.1,0-1.6-0.3s-0.8-0.7-1.1-1.2
			c-0.3-0.6-0.5-1.3-0.6-2.2c-0.1-1.2-0.1-2.3,0.2-3.3c0.3-1.1,0.9-2,1.6-2.6c0.7-0.7,1.6-1.1,2.5-1.2c0.5,0,0.9,0,1.3,0.2
			c0.4,0.2,0.7,0.4,1,0.7c0-0.3,0.1-0.6,0.3-0.8s0.4-0.3,0.8-0.3c0.2,0,0.4,0.1,0.6,0.2c0.2,0.1,0.3,0.3,0.3,0.6
			C167.6,16.2,167.6,16.4,167.5,16.6L167.5,16.6z M163.5,24.2c0.4-0.4,0.8-1,1.1-1.6c0.4-0.7,0.6-1.4,0.8-2.1c0-0.2,0-0.3,0-0.4
			c0.1-1,0.1-1.8,0.1-2.5c-0.1,0-0.1,0-0.2,0c-0.1,0-0.3,0-0.4-0.1c-0.2-0.2-0.5-0.3-0.7-0.4s-0.5-0.1-0.8-0.1
			c-0.6,0-1.2,0.4-1.7,0.9s-0.9,1.3-1.1,2.1c-0.2,0.9-0.3,1.8-0.2,2.6c0.1,0.9,0.3,1.5,0.6,1.8s0.7,0.5,1.2,0.5
			C162.7,24.8,163.1,24.6,163.5,24.2L163.5,24.2z"/>
		<path d="M173.2,25.5c-0.2-0.1-0.3-0.3-0.3-0.5c0-0.1,0-0.2,0-0.4s0.1-0.3,0.1-0.5c0.1-0.6,0.2-1.1,0.3-1.7
			c0.2-1.2,0.4-2.5,0.5-3.7c0.3-2.2,0.5-3.8,0.6-4.7s0.2-1.7,0.2-2.2c0-0.2,0-0.4,0-0.4c0-0.2,0.1-0.4,0.3-0.5s0.4-0.2,0.8-0.2
			c0.3,0,0.5,0.1,0.7,0.2s0.3,0.4,0.3,0.6c0,0.1-0.1,0.3-0.1,0.6c-0.1,0.4-0.2,0.7-0.3,1c-0.1,0.6-0.3,1.4-0.4,2.4
			c-0.2,1-0.3,2-0.4,3c-0.4,2.8-0.6,4.7-0.6,5.8c0,0.3-0.1,0.6-0.1,0.7c0,0.2-0.1,0.4-0.3,0.5s-0.4,0.2-0.7,0.2
			C173.6,25.7,173.4,25.6,173.2,25.5L173.2,25.5z"/>
		<path d="M182.3,25.7c-0.5-0.4-0.8-0.8-1.1-1.5c-0.2-0.6-0.3-1.3-0.3-2.1c0.1-1,0.3-2,0.8-3.1s1.1-1.9,1.9-2.5
			c0.8-0.6,1.7-0.9,2.6-0.8c0.7,0.1,1.2,0.4,1.7,0.8s0.8,1.1,1,2c0.2,0.8,0.2,1.8,0.1,2.9c-0.1,1-0.5,2-1,2.7s-1.1,1.3-1.8,1.7
			s-1.5,0.5-2.3,0.4C183.3,26.3,182.8,26.1,182.3,25.7z M187.6,19c-0.1-0.5-0.3-1-0.5-1.3c-0.3-0.3-0.6-0.5-1-0.5
			c-0.6-0.1-1.1,0.2-1.6,0.7s-0.9,1.2-1.2,2.1s-0.5,1.7-0.6,2.5s0,1.5,0.2,1.9s0.6,0.7,1.2,0.8c0.6,0,1.1-0.1,1.6-0.4
			s0.9-0.8,1.3-1.4c0.4-0.6,0.6-1.4,0.7-2.3C187.7,20.2,187.7,19.6,187.6,19L187.6,19z"/>
		<path d="M194.8,27.5c-0.4-0.4-0.7-0.9-0.9-1.6c-0.2-0.6-0.2-1.3,0-2.1c0.2-1,0.6-2,1.2-3c0.6-1,1.3-1.7,2.2-2.2s1.8-0.7,2.7-0.5
			c0.7,0.1,1.2,0.5,1.6,1c0.4,0.5,0.7,1.2,0.8,2.1s0,1.8-0.3,2.9c-0.3,1-0.7,1.9-1.3,2.6s-1.3,1.2-2,1.5c-0.8,0.3-1.6,0.3-2.4,0.1
			C195.8,28.2,195.2,27.9,194.8,27.5L194.8,27.5z M200.8,21.5c0-0.6-0.2-1-0.4-1.4s-0.5-0.6-0.9-0.7c-0.6-0.1-1.2,0-1.7,0.5
			s-1,1.1-1.4,1.9s-0.7,1.6-0.8,2.4c-0.2,0.8-0.2,1.5,0,1.9c0.2,0.5,0.5,0.8,1.1,0.9c0.5,0.1,1.1,0,1.6-0.2c0.5-0.3,1-0.7,1.4-1.3
			c0.4-0.6,0.8-1.3,1-2.2C200.8,22.7,200.9,22,200.8,21.5L200.8,21.5z"/>
		<path d="M219.5,19.9c0.1,0.2,0.1,0.4,0.1,0.6c-0.1,0.1-0.2,0.3-0.4,0.6c-0.2,0.3-0.4,0.6-0.6,0.8c-0.7,1-1.6,2.6-2.8,4.7
			c-0.7,1.3-1.3,2.3-1.7,3s-0.6,1.2-0.7,1.4c-0.1,0.2-0.2,0.5-0.2,0.8c0,0.2-0.1,0.3-0.1,0.4c-0.1,0.2-0.2,0.4-0.5,0.5
			c-0.2,0.1-0.4,0.1-0.7,0s-0.5-0.3-0.5-0.6s0.1-0.7,0.3-1.2c0.1-0.3,0.2-0.6,0.4-0.9c-0.7,0.6-1.4,1.1-2.1,1.3
			c-0.7,0.3-1.4,0.3-1.9,0.1c-0.5-0.2-1-0.5-1.3-0.9s-0.5-1-0.5-1.6s0.1-1.3,0.3-2.1c0.3-1.1,0.9-2.1,1.6-2.9
			c0.7-0.9,1.6-1.5,2.5-1.8c1-0.4,1.9-0.4,2.9,0c0.4,0.2,0.8,0.4,1.1,0.6s0.5,0.6,0.7,1c0,0.1,0.1,0.2,0.1,0.3
			c0.6-1.2,1.1-2,1.4-2.6c0.3-0.5,0.5-1,0.7-1.5c0.1-0.2,0.1-0.3,0.2-0.4c0.1-0.2,0.3-0.3,0.5-0.4s0.5,0,0.8,0.1
			S219.4,19.7,219.5,19.9L219.5,19.9z M215,25c-0.1,0-0.2,0-0.3,0c-0.2-0.1-0.3-0.2-0.4-0.3c-0.1-0.3-0.3-0.5-0.5-0.7
			s-0.4-0.3-0.7-0.4c-0.6-0.2-1.3-0.2-2,0.1s-1.3,0.9-1.9,1.6c-0.6,0.7-1,1.5-1.2,2.3c-0.2,0.7-0.3,1.3-0.2,1.8s0.4,0.8,0.9,1
			c0.4,0.1,0.9,0.1,1.6-0.2s1.3-0.6,1.9-1.2c0.6-0.5,1.2-1.1,1.6-1.7c0.1-0.2,0.2-0.3,0.3-0.5C214.5,26,214.6,25.7,215,25L215,25z"
			/>
	</g>
	<text transform="matrix(1 0 0 1 367.35 182.8)" class="st3 st4 st5">Heal</text>
	<text transform="matrix(1 0 0 1 367.35 182.8)" class="st6 st4 st5">Heal</text>
	<text transform="matrix(1 0 0 1 581.55 182.8)" class="st7 st4 st5">o</text>
	<text transform="matrix(1 0 0 1 581.55 182.8)" class="st6 st4 st5">o</text>
	<text transform="matrix(1 0 0 1 636.16 182.8)" class="st7 st4 st5">o</text>
	<text transform="matrix(1 0 0 1 636.16 182.8)" class="st6 st4 st5">o</text>
	<text transform="matrix(1 0 0 1 690.62 182.8)" class="st7 st4 st5">d</text>
	<text transform="matrix(1 0 0 1 690.62 182.8)" class="st6 st4 st5">d</text>
</g>
</svg>
