<?xml version="1.0" encoding="UTF-8"?>
<svg id="Layer_2" data-name="Layer 2" xmlns="http://www.w3.org/2000/svg" viewBox="0 0 353.35 322.47">
  <defs>
    <style>
      .cls-1 {
        stroke: #21c8ff;
      }

      .cls-1, .cls-2 {
        fill: none;
        stroke-width: 12px;
      }

      .cls-1, .cls-2, .cls-3 {
        stroke-miterlimit: 10;
      }

      .cls-2 {
        stroke: #f4e108;
      }

      .cls-4 {
        fill: #21c8ff;
      }

      .cls-3 {
        fill: #f52058;
        stroke: #21d2ff;
        stroke-width: 2px;
      }
    </style>
  </defs>
  <g id="Layer_1-2" data-name="Layer 1">
    <g>
      <path class="cls-3" d="m179.2,153.08l70.15-70.15c.65-.65.43-1.75-.41-2.1-5.37-5.79-14.43-14.11-27.72-20.54-17.63-8.54-33.77-9.43-42.43-9.28-.05-.02-.65-.26-1.22.11-.34.23-.58.62-.58,1.08v99.97c0,1.15,1.39,1.73,2.21.91Z"/>
      <path class="cls-3" d="m184.32,158.31l99.2.15c.92,0,1.54-.92,1.2-1.78.31-7.89-.19-20.18-5.02-34.14-6.4-18.51-17.17-30.57-23.38-36.6-.02-.05-.27-.65-.94-.78-.4-.08-.85.02-1.17.35l-70.8,70.58c-.82.81-.24,2.21.91,2.21Z"/>
      <path class="cls-3" d="m181.94,165.71l70.26,70.03c.65.65,1.75.43,2.1-.41,5.78-5.38,14.09-14.45,20.5-27.75,8.51-17.65,9.37-33.79,9.21-42.44.02-.05.26-.65-.11-1.22-.23-.34-.62-.58-1.08-.58l-99.97.16c-1.15,0-1.73,1.4-.91,2.21Z"/>
      <path class="cls-3" d="m176.25,171.69l-.3,99.2c0,.92.92,1.54,1.77,1.2,7.89.32,20.18-.17,34.14-4.97,18.52-6.38,30.6-17.12,36.63-23.33.05-.02.65-.27.79-.94.08-.4-.02-.85-.35-1.17l-70.48-70.9c-.81-.82-2.21-.24-2.21.91Z"/>
      <path class="cls-3" d="m166.59,170.97l-70.15,70.15c-.65.65-.43,1.75.41,2.1,5.37,5.79,14.43,14.11,27.72,20.54,17.63,8.54,33.77,9.43,42.43,9.28.05.02.65.26,1.22-.11.34-.23.58-.62.58-1.08v-99.97c0-1.15-1.39-1.73-2.21-.91Z"/>
      <path class="cls-3" d="m162.6,164.29l-99.2-.27c-.92,0-1.54.92-1.2,1.77-.32,7.89.17,20.18,4.98,34.14,6.38,18.52,17.13,30.59,23.34,36.62.02.05.27.65.94.79.4.08.85-.02,1.17-.35l70.88-70.5c.82-.81.24-2.21-.91-2.21Z"/>
      <path class="cls-3" d="m164.05,157.17l-70.15-70.15c-.65-.65-1.75-.43-2.1.41-5.79,5.37-14.11,14.43-20.54,27.72-8.54,17.63-9.43,33.77-9.28,42.43-.02.05-.26.65.11,1.22.23.34.62.58,1.08.58h99.97c1.15,0,1.73-1.39.91-2.21Z"/>
      <path class="cls-3" d="m168.8,152.28l.59-99.2c0-.92-.92-1.55-1.77-1.21-7.89-.35-20.18.11-34.16,4.87-18.54,6.32-30.65,17.03-36.7,23.22-.05.02-.65.27-.79.94-.08.4.02.85.35,1.17l70.27,71.1c.81.82,2.21.25,2.21-.9Z"/>
    </g>
    <circle class="cls-1" cx="174.35" cy="161" r="127"/>
    <path class="cls-2" d="m16.35,132C32.87,58.22,99.06,5.54,174.35,6c74.56.46,139.64,52.93,156,126"/>
    <path class="cls-2" d="m332.85,164.06c-7.02,83.79-73.86,148.85-152.47,152.26-84.52,3.67-160.39-64.86-166.53-155.32"/>
    <path class="cls-4" d="m19.83,141.01c10.93.32,22.2,18.27,16.99,31.5-2.44,6.21-9.08,12.8-17.82,12.8-8.68,0-15.42-6.49-17.82-12.8-5.12-13.48,7.39-31.82,18.65-31.5Z"/>
    <path class="cls-4" d="m345.43,158.75c-3.08,0-2.88-7.42-3.36-17.75-1.48-1.45-2.94-1.52-4.36,0-.49,10.33-.36,17.75-3.36,17.75s-2.88-7.42-3.36-17.75c-1.52-1.54-2.97-1.44-4.36,0-.49,10.33-.28,17.75-3.36,17.75-2.92.25-2.88-7.42-3.36-17.75-1.67-1.58-3.17-1.39-4.55,0,.18,19.38,8.61,35,19,35s18.82-15.62,19-35c-1.56-1.57-3.07-1.41-4.55,0-.49,10.33-.45,17.75-3.36,17.75Z"/>
    <g>
      <path d="m142.59,291.22c.1.19.12.4.05.61-.02.08-.08.2-.16.36-.08.16-.17.34-.28.54-.36.66-.74,1.4-1.14,2.2s-.89,1.85-1.48,3.13c-.59,1.3-1.12,2.46-1.57,3.48-.45,1.02-.75,1.71-.89,2.08-.09.25-.26.42-.49.51-.24.09-.52.08-.83-.02-.3-.1-.51-.26-.64-.47-.13-.22-.15-.45-.06-.71.03-.1.2-.4.5-.89.44-.71.83-1.4,1.2-2.05.36-.65.77-1.44,1.2-2.36,0-.01,0-.02,0-.03-.45-.17-.87-.33-1.28-.48-.41-.15-1.03-.37-1.87-.67-.33-.12-.86-.3-1.58-.56-.52-.18-.91-.33-1.18-.43-.69,1.26-1.29,2.38-1.81,3.36s-.87,1.65-1.03,2.01c-.11.24-.29.4-.53.48-.24.07-.52.05-.84-.08-.29-.12-.5-.29-.61-.52-.11-.23-.12-.46-.02-.71.04-.1.23-.39.57-.85.48-.68.93-1.33,1.34-1.96.41-.62.87-1.38,1.37-2.27,0-.02.01-.03.02-.04-.03-.01-.04-.02-.08-.03-.28-.11-.49-.28-.63-.49-.13-.21-.12-.46.03-.73.23-.41.59-.52,1.07-.33.15.06.28.12.39.17.8-1.43,1.36-2.48,1.7-3.14.34-.66.57-1.13.68-1.42.11-.28.29-.47.54-.56.24-.09.53-.07.84.05.22.09.38.23.47.43.09.2.09.4.01.62-.03.08-.09.2-.18.34-.09.15-.19.32-.32.52-.33.53-.67,1.08-1.01,1.65-.34.57-.76,1.29-1.24,2.15.73.29,1.43.56,2.08.8.8.29,1.69.58,2.67.87.17.05.35.1.54.16.19.06.38.12.58.18.69-1.48,1.18-2.56,1.47-3.24.29-.68.49-1.17.58-1.46.09-.29.26-.49.49-.59.24-.1.52-.11.84,0,.23.07.39.2.49.39Z"/>
      <path d="m152.17,305.15c.13.18.18.38.14.59-.07.37-.36.72-.88,1.02-.52.31-1.15.52-1.89.64-.73.12-1.42.11-2.04-.03-.76-.17-1.39-.47-1.89-.91-.5-.44-.83-.98-.99-1.62-.17-.64-.15-1.35.05-2.13.27-1.06.76-2.04,1.46-2.96.7-.92,1.51-1.61,2.42-2.09.92-.48,1.83-.63,2.76-.44.57.12,1.04.32,1.41.62.37.3.63.68.77,1.13.14.45.17.96.07,1.51-.14.77-.56,1.38-1.29,1.83-.73.45-1.62.72-2.67.82-1.05.09-2.13.03-3.21-.2-.02.06-.02.1-.04.16-.19.79-.17,1.45.06,2,.23.55.67.89,1.31,1.03.49.11.98.08,1.46-.08.48-.16,1-.49,1.54-1.01.11-.11.24-.18.39-.22.15-.04.31-.04.49,0,.24.04.43.16.56.34Zm-2.84-6.29c-.51.28-.98.68-1.42,1.2-.44.53-.81,1.11-1.1,1.76.71.14,1.46.17,2.24.1.79-.08,1.46-.28,2.02-.58.56-.31.89-.7.98-1.19.05-.24.02-.46-.06-.68-.09-.21-.23-.4-.43-.55-.2-.15-.44-.26-.72-.32-.5-.1-1-.02-1.51.26Z"/>
      <path d="m167.7,300.7c-.07.23-.11.36-.12.4-.13.42-.2.67-.22.78-.19.72-.42,1.77-.7,3.13-.28,1.36-.44,2.25-.46,2.66-.01.18,0,.42.01.71.02.28.03.49.02.64-.01.25-.11.44-.28.59-.17.15-.4.21-.67.19-.36-.02-.62-.16-.76-.4-.15-.24-.21-.56-.18-.95.03-.33.08-.71.16-1.13-.51.74-1.09,1.31-1.75,1.7-.66.39-1.31.56-1.94.49-.68-.07-1.24-.29-1.68-.66-.44-.37-.75-.87-.92-1.51-.17-.64-.2-1.39-.09-2.25.15-1.16.53-2.21,1.11-3.17.58-.96,1.28-1.69,2.11-2.22.82-.52,1.67-.75,2.55-.67.45.04.85.16,1.18.36.33.2.61.49.85.86.07-.33.2-.57.39-.72.19-.16.44-.22.74-.21.23.01.42.1.57.27.15.16.23.36.22.58,0,.12-.04.3-.11.52Zm-5.2,6.92c.52-.34,1.03-.81,1.5-1.41.48-.6.86-1.25,1.15-1.94.04-.17.06-.25.09-.42.2-.97.36-1.8.46-2.5-.05.01-.11.02-.17.02-.15-.01-.29-.08-.41-.21-.21-.23-.42-.41-.62-.54-.2-.13-.44-.2-.72-.23-.59-.05-1.17.15-1.76.6-.59.45-1.1,1.07-1.53,1.86-.43.79-.7,1.63-.81,2.53-.1.86-.04,1.5.2,1.93.23.43.63.68,1.2.74.41.04.88-.1,1.41-.44Z"/>
      <path d="m173.22,309.84c-.2-.15-.29-.33-.29-.54,0-.1.02-.23.05-.39.03-.16.07-.33.11-.51.14-.56.25-1.13.34-1.69.2-1.21.38-2.45.54-3.72.26-2.2.42-3.77.49-4.73.07-.96.11-1.69.12-2.2,0-.22.02-.35.02-.39.02-.23.12-.41.29-.54s.39-.2.67-.21c.25,0,.46.07.63.21.17.15.26.34.26.57,0,.08-.03.3-.1.65-.08.38-.15.74-.19,1.05-.08.64-.18,1.46-.29,2.44-.11.99-.22,1.98-.32,2.99-.27,2.76-.41,4.71-.45,5.79-.01.34-.03.57-.05.68-.03.23-.14.42-.34.55-.2.14-.46.21-.78.21-.28,0-.52-.07-.72-.23Z"/>
      <path d="m183.51,309.25c-.59-.27-1.06-.69-1.42-1.26-.35-.57-.55-1.24-.61-2.03-.07-1.02.07-2.08.4-3.16.33-1.08.83-2,1.48-2.76.65-.76,1.4-1.18,2.28-1.28.63-.07,1.23.07,1.8.42.56.35,1.05.9,1.46,1.65s.69,1.66.84,2.73c.15,1.05.08,2.02-.24,2.89-.31.87-.82,1.59-1.52,2.13-.7.54-1.53.87-2.48.96-.73.07-1.4-.03-1.99-.29Zm4.04-7.68c-.23-.51-.5-.89-.83-1.14-.32-.25-.68-.35-1.07-.3-.58.06-1.05.4-1.44,1.02-.38.62-.65,1.37-.81,2.24-.16.88-.2,1.72-.13,2.52.07.83.26,1.45.58,1.86.32.4.79.58,1.42.52.62-.06,1.16-.31,1.62-.73.46-.43.8-1,1-1.72.2-.72.25-1.52.13-2.41-.09-.73-.26-1.35-.48-1.86Z"/>
      <path d="m197.66,307.21c-.62-.2-1.14-.56-1.56-1.08-.42-.52-.7-1.17-.85-1.94-.19-1.01-.18-2.07.03-3.19.2-1.12.59-2.09,1.15-2.92.56-.83,1.26-1.34,2.12-1.54.62-.15,1.24-.08,1.84.2.61.28,1.15.77,1.65,1.46s.89,1.56,1.17,2.61c.27,1.03.31,1.99.1,2.9-.21.91-.63,1.67-1.27,2.3-.64.63-1.43,1.05-2.36,1.25-.72.16-1.4.14-2.02-.06Zm3.12-8.11c-.29-.48-.61-.83-.96-1.03-.35-.21-.72-.26-1.1-.17-.57.13-1,.53-1.31,1.19-.31.66-.49,1.44-.54,2.32-.05.89,0,1.73.16,2.51.17.82.44,1.41.8,1.78.37.36.86.48,1.47.34.61-.13,1.12-.44,1.53-.92.41-.48.68-1.09.8-1.82.12-.74.07-1.54-.15-2.41-.18-.71-.41-1.31-.7-1.79Z"/>
      <path d="m213.85,287.16c.21.07.36.22.45.42.05.11.1.36.16.73.06.4.12.73.18.98.28,1.2.75,2.97,1.36,5.29.38,1.46.67,2.58.88,3.36s.36,1.29.46,1.53c.1.25.23.5.38.75.1.16.16.29.2.39.1.25.09.48-.02.7-.11.22-.31.39-.59.5-.35.14-.63.09-.86-.13-.22-.22-.43-.59-.62-1.11-.11-.29-.2-.6-.27-.93-.13.94-.43,1.76-.88,2.46-.45.7-1.01,1.16-1.68,1.39-.62.21-1.21.24-1.76.09-.56-.15-1.05-.48-1.48-.97-.42-.49-.75-1.12-.99-1.88-.34-1.08-.46-2.19-.37-3.32.09-1.12.4-2.11.92-2.97.52-.86,1.22-1.44,2.13-1.78.43-.16.83-.23,1.2-.21.37.02.74.12,1.1.31.1.06.19.12.25.17-.34-1.3-.61-2.24-.79-2.81-.18-.58-.35-1.1-.51-1.54-.06-.16-.11-.29-.13-.37-.06-.22-.04-.43.07-.61.1-.18.28-.32.52-.42.24-.1.47-.11.68-.03Zm.39,6.68c-.07.09-.16.16-.27.2-.16.06-.32.06-.48-.01-.28-.11-.53-.18-.77-.2-.24-.02-.5.02-.77.12-.63.23-1.11.69-1.44,1.39-.33.7-.51,1.5-.53,2.41-.02.91.1,1.77.37,2.58.24.72.56,1.24.97,1.54.41.3.86.36,1.37.19.47-.16.89-.55,1.25-1.17.36-.62.63-1.35.79-2.18.16-.83.2-1.63.12-2.39-.06-.24-.08-.36-.14-.6-.19-.75-.28-1.12-.47-1.87Z"/>
    </g>
    <g>
      <path d="m138.68,16.47c.21.1.34.26.41.48.02.08.05.21.06.39.02.18.03.38.05.61.05.76.13,1.58.23,2.47.1.89.28,2.03.52,3.42.25,1.41.48,2.66.7,3.76.22,1.09.38,1.83.48,2.21.07.26.04.49-.07.69-.12.2-.32.35-.6.44-.26.09-.5.08-.71-.03-.21-.11-.36-.28-.44-.54-.03-.1-.09-.44-.15-1.01-.1-.83-.19-1.61-.29-2.35-.1-.74-.25-1.61-.43-2.61,0-.01,0-.02,0-.03-.46.12-.89.25-1.3.37s-1.03.33-1.86.63c-.33.12-.85.31-1.55.59-.5.2-.89.35-1.16.46.34,1.39.66,2.62.95,3.69s.5,1.79.63,2.17c.08.25.08.48-.03.7-.11.21-.29.37-.57.48-.26.1-.5.11-.71.02-.22-.09-.38-.26-.48-.5-.04-.1-.11-.43-.22-1-.15-.82-.3-1.59-.45-2.32s-.36-1.59-.61-2.57c0-.02,0-.03,0-.04-.03.01-.04.02-.07.03-.28.11-.54.14-.78.09-.24-.06-.41-.24-.49-.54-.13-.46.05-.79.54-.99.15-.06.29-.11.4-.15-.41-1.58-.71-2.74-.9-3.45-.2-.72-.35-1.22-.46-1.5-.11-.28-.1-.55.05-.79.14-.24.4-.43.76-.57.25-.1.49-.1.7-.02.21.09.36.23.44.45.03.08.06.21.09.38.03.17.06.37.09.6.09.62.19,1.26.3,1.91.11.65.28,1.47.5,2.43.75-.28,1.46-.53,2.13-.78.81-.29,1.7-.62,2.68-.99.17-.06.35-.13.53-.2.19-.07.38-.13.58-.2-.3-1.6-.51-2.77-.66-3.5-.15-.73-.27-1.24-.36-1.53-.09-.29-.06-.55.1-.78.16-.23.42-.4.79-.51.26-.08.49-.07.7.03Z"/>
      <path d="m153.78,24.47c.18.12.28.29.32.51.07.37-.07.79-.4,1.26-.33.46-.77.88-1.33,1.26-.55.38-1.1.62-1.64.74-.67.14-1.28.13-1.85-.06-.57-.19-1.07-.53-1.48-1.03-.42-.5-.73-1.14-.92-1.91-.27-1.06-.31-2.16-.12-3.29.19-1.14.61-2.13,1.26-2.96.65-.84,1.47-1.36,2.45-1.56.6-.12,1.15-.11,1.62.03.47.14.86.4,1.16.77s.5.84.6,1.39c.14.77-.05,1.49-.55,2.16-.5.67-1.19,1.25-2.06,1.75-.88.49-1.81.87-2.82,1.14.02.06.02.1.04.16.19.79.49,1.38.9,1.77.41.4.9.53,1.48.4.44-.1.83-.31,1.16-.63s.64-.83.92-1.5c.05-.14.14-.25.25-.34.12-.09.25-.15.42-.18.22-.04.42,0,.6.12Zm-4.92-4.74c-.36.46-.62,1.03-.78,1.7-.16.67-.23,1.35-.2,2.06.67-.18,1.33-.47,1.99-.86.66-.39,1.19-.83,1.58-1.33.39-.5.55-.98.46-1.47-.05-.24-.15-.44-.31-.61-.16-.17-.37-.28-.62-.35-.25-.07-.52-.07-.8,0-.51.11-.95.39-1.31.86Z"/>
      <path d="m167.53,16.63c-.05.23-.07.37-.08.41-.09.43-.13.69-.14.8-.11.74-.23,1.8-.34,3.19-.11,1.38-.15,2.28-.13,2.7.01.18.04.42.09.71.05.27.08.48.09.63.01.25-.05.45-.18.62-.14.16-.32.25-.56.27-.32.02-.56-.08-.72-.3-.16-.22-.26-.53-.29-.91-.03-.33-.03-.72-.02-1.15-.36.8-.79,1.45-1.29,1.95-.51.5-1.03.77-1.58.83-.59.06-1.12-.04-1.58-.3-.46-.26-.84-.68-1.14-1.25-.3-.58-.51-1.29-.63-2.16-.15-1.16-.07-2.27.25-3.34.33-1.07.85-1.96,1.57-2.65.72-.69,1.56-1.08,2.49-1.16.48-.04.91.01,1.28.16.37.15.71.39,1,.73.03-.33.13-.59.31-.77.18-.18.43-.28.75-.3.24-.01.45.05.63.2.18.15.27.33.28.56,0,.12-.01.3-.06.53Zm-4.01,7.57c.41-.42.79-.97,1.13-1.63.35-.66.61-1.36.8-2.08.01-.17.02-.26.03-.43.06-.99.1-1.83.11-2.54-.05.02-.11.03-.17.04-.15.01-.3-.04-.45-.15-.25-.2-.48-.34-.71-.44-.23-.1-.48-.13-.77-.11-.6.05-1.16.36-1.66.92-.5.56-.87,1.28-1.1,2.14-.24.86-.3,1.75-.19,2.65.1.86.3,1.47.6,1.84.3.37.7.53,1.21.48.37-.04.76-.27,1.16-.69Z"/>
      <path d="m173.23,25.48c-.17-.15-.26-.33-.26-.54,0-.1.01-.23.04-.39.03-.16.06-.33.1-.51.12-.56.22-1.13.31-1.69.19-1.21.37-2.45.54-3.72.29-2.19.49-3.77.59-4.72.1-.95.16-1.69.18-2.19.01-.22.03-.35.03-.39.03-.23.15-.41.34-.54.2-.13.45-.19.77-.18.29,0,.52.09.7.25.18.16.27.35.27.58,0,.08-.05.3-.15.65-.11.38-.2.73-.27,1.04-.13.64-.27,1.45-.44,2.42-.16.98-.31,1.97-.45,2.97-.37,2.75-.55,4.69-.62,5.77-.02.34-.05.57-.06.67-.03.23-.13.41-.31.55-.18.13-.41.2-.69.2-.25,0-.45-.08-.63-.23Z"/>
      <path d="m182.31,25.7c-.47-.36-.83-.84-1.06-1.45-.24-.61-.33-1.31-.28-2.09.07-1.02.34-2.05.83-3.08s1.13-1.85,1.93-2.48c.8-.63,1.67-.89,2.6-.79.67.07,1.25.36,1.73.84.48.48.82,1.14,1.01,1.97.19.83.21,1.78.05,2.86-.15,1.05-.48,1.96-.98,2.72-.5.76-1.11,1.33-1.84,1.7s-1.49.51-2.32.43c-.64-.06-1.2-.27-1.67-.63Zm5.26-6.7c-.09-.55-.27-.99-.54-1.31-.26-.32-.6-.5-1-.54-.6-.07-1.15.17-1.65.7-.5.53-.9,1.22-1.2,2.06-.3.84-.48,1.66-.55,2.46-.07.83,0,1.48.22,1.93.22.45.6.7,1.16.76.55.05,1.07-.08,1.57-.39.5-.32.92-.8,1.28-1.44.35-.65.59-1.41.7-2.3.09-.73.09-1.37,0-1.92Z"/>
      <path d="m194.8,27.5c-.43-.41-.72-.93-.89-1.57-.16-.63-.18-1.34-.03-2.11.19-1.01.58-2,1.19-2.96.6-.96,1.34-1.71,2.22-2.23.87-.53,1.77-.69,2.68-.47.66.15,1.21.5,1.63,1.04.42.54.68,1.23.78,2.08.09.85,0,1.8-.28,2.85-.27,1.03-.71,1.89-1.3,2.58-.59.7-1.27,1.18-2.03,1.47-.77.28-1.55.33-2.37.15-.63-.14-1.16-.41-1.59-.83Zm6.03-6.03c-.03-.56-.16-1.01-.38-1.36-.23-.35-.54-.57-.93-.66-.59-.14-1.17.03-1.73.5-.56.47-1.04,1.11-1.44,1.9-.4.8-.67,1.59-.84,2.37-.17.82-.17,1.47,0,1.94.16.47.52.77,1.07.89.54.12,1.08.05,1.61-.2.54-.26,1.02-.68,1.44-1.28.43-.6.76-1.33.97-2.2.18-.71.26-1.35.23-1.91Z"/>
      <path d="m219.47,19.93c.12.21.13.42.05.63-.05.11-.19.32-.42.62-.25.32-.44.6-.58.82-.66,1.05-1.58,2.63-2.75,4.73-.73,1.32-1.29,2.33-1.67,3.05-.38.71-.62,1.19-.71,1.43-.1.25-.18.52-.25.81-.04.18-.08.32-.12.42-.1.25-.25.42-.47.51-.21.09-.44.09-.69,0-.31-.12-.46-.33-.46-.64,0-.31.1-.72.29-1.23.11-.29.24-.58.41-.88-.69.63-1.39,1.07-2.12,1.34-.72.27-1.37.3-1.95.1-.54-.19-.96-.5-1.26-.93-.3-.44-.47-.98-.51-1.61-.04-.64.06-1.34.3-2.1.34-1.08.87-2.06,1.6-2.92.73-.86,1.58-1.47,2.53-1.82.96-.35,1.93-.36,2.89,0,.45.17.82.38,1.11.65.29.27.51.59.66.98.04.11.07.21.08.3.63-1.19,1.08-2.05,1.35-2.59.26-.54.5-1.04.68-1.47.07-.16.12-.28.16-.36.11-.2.28-.33.5-.38.22-.05.47-.02.75.09.28.11.48.27.6.49Zm-4.48,5.05c-.12.02-.23,0-.33-.04-.16-.06-.28-.17-.35-.33-.14-.27-.29-.49-.46-.67-.17-.18-.4-.32-.68-.42-.65-.24-1.34-.19-2.04.15-.7.34-1.34.87-1.89,1.58-.56.71-.97,1.48-1.24,2.29-.24.72-.3,1.32-.18,1.8.12.48.4.79.86.95.42.15.94.09,1.57-.17s1.27-.65,1.91-1.18c.65-.53,1.19-1.1,1.64-1.72.12-.21.18-.32.29-.54.37-.68.55-1.02.92-1.7Z"/>
    </g>
  </g>
</svg>